<mxfile host="app.diagrams.net" modified="2024-01-08T17:50:15.162Z" agent="Mozilla/5.0 (Windows NT 10.0; Win64; x64; rv:121.0) Gecko/20100101 Firefox/121.0" etag="g3ClHd19D-rvzM7zkXfL" version="22.1.17" type="github">
  <diagram name="Page-1" id="xyg415_bTdEdrub3uQvS">
    <mxGraphModel dx="1434" dy="774" grid="1" gridSize="10" guides="1" tooltips="1" connect="1" arrows="1" fold="1" page="1" pageScale="1" pageWidth="850" pageHeight="1100" math="0" shadow="0">
      <root>
        <mxCell id="0" />
        <mxCell id="1" parent="0" />
        <mxCell id="lhlwWGySXTpBziMB_SvE-2" value="&lt;div&gt;&lt;font face=&quot;Helvetica&quot;&gt;Config (.cpp)&lt;/font&gt;&lt;/div&gt;&lt;div&gt;&lt;font face=&quot;Lucida Console&quot;&gt;&amp;nbsp; len&amp;nbsp;&amp;nbsp;&amp;nbsp;&amp;nbsp;&amp;nbsp;&amp;nbsp;&amp;nbsp;&amp;nbsp; std::bitset&amp;lt;3&amp;gt;&lt;br&gt;&amp;nbsp; ren&amp;nbsp;&amp;nbsp;&amp;nbsp;&amp;nbsp;&amp;nbsp;&amp;nbsp;&amp;nbsp;&amp;nbsp; std::bitset&amp;lt;3&amp;gt;&lt;br&gt;&amp;nbsp; sync&amp;nbsp;&amp;nbsp;&amp;nbsp;&amp;nbsp;&amp;nbsp;&amp;nbsp;&amp;nbsp; bool&lt;br&gt;&amp;nbsp; context&amp;nbsp;&amp;nbsp;&amp;nbsp;&amp;nbsp; bool&lt;br&gt;&lt;/font&gt;&lt;/div&gt;" style="text;html=1;strokeColor=default;fillColor=none;align=left;verticalAlign=middle;whiteSpace=wrap;rounded=0;imageAlign=left;" vertex="1" parent="1">
          <mxGeometry x="260" y="330" width="220" height="90" as="geometry" />
        </mxCell>
        <mxCell id="lhlwWGySXTpBziMB_SvE-3" value="" style="shape=flexArrow;endArrow=classic;html=1;rounded=0;exitX=1;exitY=0.75;exitDx=0;exitDy=0;entryX=0;entryY=0.5;entryDx=0;entryDy=0;" edge="1" parent="1" source="lhlwWGySXTpBziMB_SvE-2" target="lhlwWGySXTpBziMB_SvE-18">
          <mxGeometry width="50" height="50" relative="1" as="geometry">
            <mxPoint x="480" y="400" as="sourcePoint" />
            <mxPoint x="640" y="375" as="targetPoint" />
          </mxGeometry>
        </mxCell>
        <mxCell id="lhlwWGySXTpBziMB_SvE-7" value="&lt;div&gt;JSON&lt;/div&gt;" style="text;html=1;strokeColor=default;fillColor=none;align=center;verticalAlign=middle;whiteSpace=wrap;rounded=0;imageAlign=left;" vertex="1" parent="1">
          <mxGeometry x="90" y="250" width="50" height="20" as="geometry" />
        </mxCell>
        <mxCell id="lhlwWGySXTpBziMB_SvE-11" value="" style="curved=1;endArrow=classic;html=1;rounded=0;exitX=1;exitY=0.5;exitDx=0;exitDy=0;entryX=0;entryY=0.5;entryDx=0;entryDy=0;" edge="1" parent="1" source="lhlwWGySXTpBziMB_SvE-7" target="lhlwWGySXTpBziMB_SvE-2">
          <mxGeometry width="50" height="50" relative="1" as="geometry">
            <mxPoint x="400" y="430" as="sourcePoint" />
            <mxPoint x="450" y="380" as="targetPoint" />
            <Array as="points">
              <mxPoint x="180" y="260" />
              <mxPoint x="180" y="360" />
            </Array>
          </mxGeometry>
        </mxCell>
        <mxCell id="lhlwWGySXTpBziMB_SvE-12" value="&lt;div&gt;Naboo::Instance&lt;/div&gt;" style="text;html=1;strokeColor=default;fillColor=none;align=center;verticalAlign=middle;whiteSpace=wrap;rounded=0;imageAlign=left;" vertex="1" parent="1">
          <mxGeometry x="70" y="480" width="110" height="40" as="geometry" />
        </mxCell>
        <mxCell id="lhlwWGySXTpBziMB_SvE-14" value="" style="curved=1;endArrow=classic;html=1;rounded=0;exitX=1;exitY=0.5;exitDx=0;exitDy=0;entryX=0;entryY=0.5;entryDx=0;entryDy=0;" edge="1" parent="1" source="lhlwWGySXTpBziMB_SvE-12" target="lhlwWGySXTpBziMB_SvE-2">
          <mxGeometry width="50" height="50" relative="1" as="geometry">
            <mxPoint x="400" y="340" as="sourcePoint" />
            <mxPoint x="320" y="440" as="targetPoint" />
            <Array as="points">
              <mxPoint x="250" y="480" />
              <mxPoint x="200" y="370" />
            </Array>
          </mxGeometry>
        </mxCell>
        <mxCell id="lhlwWGySXTpBziMB_SvE-15" value="&lt;div&gt;exported_config.json&lt;/div&gt;" style="text;html=1;strokeColor=default;fillColor=#FFB366;align=center;verticalAlign=middle;whiteSpace=wrap;rounded=0;imageAlign=left;labelBackgroundColor=none;dashed=1;dashPattern=12 12;" vertex="1" parent="1">
          <mxGeometry x="390" y="240" width="130" height="20" as="geometry" />
        </mxCell>
        <mxCell id="lhlwWGySXTpBziMB_SvE-16" value="" style="curved=1;endArrow=classic;html=1;rounded=0;exitX=0.5;exitY=0;exitDx=0;exitDy=0;entryX=0;entryY=0.5;entryDx=0;entryDy=0;" edge="1" parent="1" source="lhlwWGySXTpBziMB_SvE-2" target="lhlwWGySXTpBziMB_SvE-15">
          <mxGeometry width="50" height="50" relative="1" as="geometry">
            <mxPoint x="400" y="340" as="sourcePoint" />
            <mxPoint x="450" y="290" as="targetPoint" />
            <Array as="points">
              <mxPoint x="310" y="290" />
              <mxPoint x="350" y="240" />
            </Array>
          </mxGeometry>
        </mxCell>
        <mxCell id="lhlwWGySXTpBziMB_SvE-17" value="&lt;div&gt;SpotName&lt;br&gt;&lt;/div&gt;" style="text;html=1;strokeColor=default;fillColor=none;align=left;verticalAlign=middle;whiteSpace=wrap;rounded=0;imageAlign=left;" vertex="1" parent="1">
          <mxGeometry x="260" y="420" width="220" height="40" as="geometry" />
        </mxCell>
        <mxCell id="lhlwWGySXTpBziMB_SvE-18" value="&lt;div align=&quot;left&quot;&gt;SpotName&lt;/div&gt;&lt;div align=&quot;left&quot;&gt;configKey&lt;/div&gt;&lt;div align=&quot;left&quot;&gt;Address + offset&lt;/div&gt;&lt;div align=&quot;left&quot;&gt;1-bit value&lt;br&gt;&lt;/div&gt;" style="text;html=1;strokeColor=default;fillColor=none;align=left;verticalAlign=middle;whiteSpace=wrap;rounded=0;imageAlign=left;" vertex="1" parent="1">
          <mxGeometry x="570" y="337.5" width="100" height="75" as="geometry" />
        </mxCell>
        <mxCell id="lhlwWGySXTpBziMB_SvE-19" value="&lt;div&gt;BitsetMap.txt&lt;/div&gt;" style="text;html=1;strokeColor=default;fillColor=#FFB366;align=center;verticalAlign=middle;whiteSpace=wrap;rounded=0;imageAlign=left;dashed=1;dashPattern=12 12;" vertex="1" parent="1">
          <mxGeometry x="660" y="490" width="80" height="20" as="geometry" />
        </mxCell>
        <mxCell id="lhlwWGySXTpBziMB_SvE-20" value="&lt;div&gt;bitstream.loc&lt;/div&gt;" style="text;html=1;strokeColor=default;fillColor=#FFB366;align=center;verticalAlign=middle;whiteSpace=wrap;rounded=0;imageAlign=left;dashed=1;dashPattern=12 12;" vertex="1" parent="1">
          <mxGeometry x="660" y="510" width="80" height="20" as="geometry" />
        </mxCell>
        <mxCell id="lhlwWGySXTpBziMB_SvE-21" value="" style="curved=1;endArrow=classic;html=1;rounded=0;exitX=1;exitY=0.5;exitDx=0;exitDy=0;" edge="1" parent="1" source="lhlwWGySXTpBziMB_SvE-12">
          <mxGeometry width="50" height="50" relative="1" as="geometry">
            <mxPoint x="400" y="340" as="sourcePoint" />
            <mxPoint x="660" y="510" as="targetPoint" />
            <Array as="points">
              <mxPoint x="330" y="530" />
              <mxPoint x="380" y="480" />
            </Array>
          </mxGeometry>
        </mxCell>
        <mxCell id="lhlwWGySXTpBziMB_SvE-22" value="" style="curved=1;endArrow=classic;html=1;rounded=0;exitX=1;exitY=0.5;exitDx=0;exitDy=0;entryX=0;entryY=0;entryDx=0;entryDy=0;" edge="1" parent="1" source="lhlwWGySXTpBziMB_SvE-18" target="lhlwWGySXTpBziMB_SvE-20">
          <mxGeometry width="50" height="50" relative="1" as="geometry">
            <mxPoint x="400" y="340" as="sourcePoint" />
            <mxPoint x="450" y="290" as="targetPoint" />
            <Array as="points">
              <mxPoint x="730" y="430" />
              <mxPoint x="570" y="470" />
            </Array>
          </mxGeometry>
        </mxCell>
        <mxCell id="lhlwWGySXTpBziMB_SvE-24" value="bitstream.bcs" style="text;html=1;strokeColor=default;fillColor=#FFB366;align=center;verticalAlign=middle;whiteSpace=wrap;rounded=0;imageAlign=left;labelBackgroundColor=none;dashed=1;dashPattern=12 12;" vertex="1" parent="1">
          <mxGeometry x="720" y="260" width="80" height="20" as="geometry" />
        </mxCell>
        <mxCell id="lhlwWGySXTpBziMB_SvE-25" value="" style="curved=1;endArrow=classic;html=1;rounded=0;exitX=1;exitY=0.5;exitDx=0;exitDy=0;entryX=0;entryY=0.5;entryDx=0;entryDy=0;" edge="1" parent="1" source="lhlwWGySXTpBziMB_SvE-18" target="lhlwWGySXTpBziMB_SvE-24">
          <mxGeometry width="50" height="50" relative="1" as="geometry">
            <mxPoint x="400" y="340" as="sourcePoint" />
            <mxPoint x="450" y="290" as="targetPoint" />
            <Array as="points">
              <mxPoint x="770" y="330" />
              <mxPoint x="650" y="270" />
            </Array>
          </mxGeometry>
        </mxCell>
      </root>
    </mxGraphModel>
  </diagram>
</mxfile>
